<?xml version="1.0" standalone="no"?>
<!DOCTYPE svg PUBLIC "-//W3C//DTD SVG 20010904//EN"
 "http://www.w3.org/TR/2001/REC-SVG-20010904/DTD/svg10.dtd">
<svg version="1.0" xmlns="http://www.w3.org/2000/svg"
 width="1024.000000pt" height="1024.000000pt" viewBox="0 0 1024.000000 1024.000000"
 preserveAspectRatio="xMidYMid meet">

<g transform="translate(0.000000,1024.000000) scale(0.100000,-0.100000)"
fill="#000000" stroke="none">
<path d="M5080 9010 c-19 -19 -20 -33 -20 -204 l0 -185 26 -20 c34 -27 40 -26
69 4 25 24 25 26 25 205 0 167 -1 181 -20 200 -11 11 -29 20 -40 20 -11 0 -29
-9 -40 -20z"/>
<path d="M7505 9002 c-129 -93 -419 -467 -604 -777 -302 -508 -469 -994 -543
-1585 -6 -52 -12 -228 -12 -390 l-1 -295 -25 -31 c-14 -17 -62 -75 -108 -130
-299 -355 -479 -775 -533 -1244 -18 -153 -15 -481 5 -615 35 -225 55 -268 129
-273 l46 -3 223 227 c221 225 361 347 491 431 62 41 71 44 125 41 l57 -3 5
-157 c5 -148 6 -158 29 -182 23 -24 31 -26 108 -26 46 0 83 -4 83 -9 0 -5 -18
-39 -39 -76 -119 -203 -148 -499 -81 -823 28 -131 92 -330 135 -412 37 -71 94
-59 160 34 22 30 43 55 46 56 3 0 14 -37 24 -82 27 -127 81 -299 140 -448 64
-160 170 -388 192 -412 22 -24 78 -23 103 2 24 24 141 255 204 402 63 148 103
264 139 404 18 67 35 122 40 123 4 1 31 -27 60 -61 46 -54 59 -63 91 -66 51
-4 68 13 100 101 84 235 120 428 120 642 -1 235 -45 414 -139 560 -19 31 -35
58 -35 60 0 3 38 5 85 5 79 0 88 2 112 26 l25 26 -7 160 -7 160 73 -4 c65 -3
81 -8 134 -42 125 -80 240 -184 475 -426 236 -243 244 -250 282 -250 73 0 93
41 120 241 20 149 17 636 -5 784 -64 424 -224 774 -514 1122 -49 57 -98 117
-110 132 -22 27 -23 34 -27 327 -5 387 -27 576 -107 904 -130 533 -361 1014
-708 1475 -85 114 -282 316 -356 365 -72 49 -144 53 -200 12z m131 -174 c79
-52 293 -273 392 -405 86 -115 222 -332 222 -353 0 -7 -224 -10 -635 -10 -349
0 -635 4 -635 8 0 14 133 230 197 320 120 168 378 472 402 472 4 0 30 -14 57
-32z m686 -929 c45 -12 48 -17 133 -232 161 -412 235 -770 254 -1235 22 -523
-30 -921 -216 -1679 l-58 -233 -322 0 -323 0 0 169 c0 163 -14 346 -46 596
-17 141 -27 175 -61 215 -20 25 -32 30 -68 30 -55 0 -97 -33 -119 -93 -36 -99
-74 -421 -83 -714 l-6 -203 -312 0 c-289 0 -313 1 -318 18 -113 390 -215 837
-241 1062 -53 446 -48 925 14 1270 58 319 154 620 290 907 47 99 62 122 81
125 59 9 1367 7 1401 -3z m-1954 -2196 c21 -267 154 -937 227 -1142 8 -24 14
-45 13 -46 -2 -1 -19 -8 -38 -15 -126 -48 -494 -374 -656 -582 -20 -27 -40
-48 -44 -48 -37 0 -49 538 -17 766 41 298 137 564 291 808 53 84 205 284 216
285 3 1 7 -11 8 -26z m2570 -72 c302 -373 428 -710 451 -1211 8 -169 -2 -470
-17 -538 l-7 -34 -118 136 c-240 275 -537 526 -622 526 -12 0 -15 5 -11 17 18
47 122 483 156 653 36 181 76 432 82 508 1 17 5 32 8 32 3 0 39 -40 78 -89z
m-1304 -1141 c1 -555 -5 -762 -21 -746 -4 3 -13 36 -21 73 -11 52 -16 175 -19
531 -5 453 0 587 29 792 l12 85 10 -60 c5 -34 10 -331 10 -675z m-346 -137
c-64 -2 -172 -2 -240 0 -68 1 -15 3 117 3 132 0 187 -2 123 -3z m1002 0 c0 -5
-108 -7 -240 -5 l-241 3 3 -98 3 -98 240 -5 240 -6 -241 -2 c-213 -2 -243 0
-248 14 -8 21 -8 189 1 197 9 10 483 9 483 0z m-883 -110 c-2 -21 -4 -6 -4 32
0 39 2 55 4 38 2 -18 2 -50 0 -70z m-480 -45 c-2 -18 -4 -6 -4 27 0 33 2 48 4
33 2 -15 2 -42 0 -60z m361 -55 c-64 -2 -172 -2 -240 0 -68 1 -15 3 117 3 132
0 187 -2 123 -3z m127 -175 c3 -13 16 -79 30 -148 31 -159 91 -369 112 -392
21 -23 75 -23 96 0 23 25 94 193 117 273 10 39 22 119 26 179 l7 110 112 0
c131 0 138 -3 210 -105 144 -201 179 -487 100 -815 -14 -58 -33 -127 -41 -154
l-16 -48 -46 78 c-24 44 -52 87 -60 97 -37 42 -112 -2 -112 -67 0 -79 -81
-343 -171 -554 -59 -137 -159 -342 -168 -342 -8 0 -97 197 -159 355 -58 146
-107 303 -136 440 -15 66 -29 130 -31 142 -7 31 -49 57 -79 49 -22 -5 -37 -25
-103 -135 l-21 -34 -22 59 c-60 161 -95 468 -71 624 17 111 61 226 122 324
l54 86 122 0 c119 0 123 -1 128 -22z"/>
<path d="M7490 7395 c-179 -36 -295 -109 -395 -250 -157 -221 -177 -432 -63
-665 52 -105 168 -227 265 -278 184 -97 419 -95 622 4 101 50 216 163 260 256
92 194 92 374 2 571 -123 269 -409 419 -691 362z m235 -170 c90 -24 169 -71
234 -141 140 -149 166 -335 75 -522 -70 -144 -201 -238 -364 -263 -200 -31
-414 85 -504 273 -82 173 -45 377 94 522 67 70 129 108 211 130 72 19 181 20
254 1z"/>
<path d="M2586 8595 c-134 -19 -219 -39 -366 -87 -289 -94 -488 -217 -711
-438 -305 -302 -508 -680 -565 -1050 -61 -401 1 -821 176 -1175 78 -158 147
-257 311 -452 132 -156 208 -266 278 -401 102 -199 171 -463 171 -648 l0 -99
-33 -16 c-79 -39 -129 -160 -108 -260 14 -64 29 -93 85 -161 42 -51 45 -61 52
-131 9 -106 1 -140 -38 -158 -62 -27 -60 -133 2 -146 30 -5 39 -34 40 -118 1
-103 86 -254 201 -358 47 -43 83 -65 155 -93 80 -32 95 -41 99 -63 22 -112 75
-201 175 -294 210 -195 484 -190 701 11 90 84 126 136 158 235 14 44 33 83 41
88 8 4 46 21 83 39 170 79 303 268 329 465 10 78 12 84 37 90 41 10 51 24 51
70 0 44 -16 67 -57 79 -22 7 -23 12 -23 113 l0 105 52 57 c75 82 102 146 96
231 -6 86 -40 147 -108 196 l-48 34 5 88 c21 427 150 709 494 1077 125 135
192 222 262 345 61 106 68 111 211 161 190 66 390 91 551 69 114 -15 250 -48
293 -69 l33 -17 -53 -23 c-237 -105 -278 -132 -278 -187 0 -25 6 -38 26 -51
32 -21 40 -19 269 75 94 38 203 81 243 97 82 31 108 58 97 102 -3 16 -39 70
-78 122 -40 51 -131 170 -203 265 -117 154 -134 171 -163 174 -41 4 -71 -21
-71 -58 0 -29 68 -148 143 -249 26 -35 46 -65 45 -66 -2 -2 -57 8 -123 22 -99
21 -149 26 -290 26 -152 1 -182 -2 -287 -26 -65 -15 -142 -36 -173 -47 -30
-10 -55 -16 -55 -12 0 4 11 61 24 127 43 211 59 382 53 565 -20 634 -377 1234
-931 1568 -188 114 -439 205 -681 248 -118 21 -477 27 -599 9z m652 -180 c268
-60 596 -227 806 -410 155 -136 330 -366 416 -548 185 -390 225 -825 115
-1259 -58 -227 -147 -397 -305 -578 -409 -470 -507 -631 -570 -938 -15 -73
-38 -308 -40 -404 0 -5 -108 -8 -239 -8 l-239 0 -8 168 c-17 325 3 1204 32
1413 l6 46 88 6 c177 13 265 45 360 134 155 143 184 355 65 477 -72 74 -113
91 -230 91 -88 0 -107 -3 -157 -27 -72 -33 -130 -79 -163 -129 -33 -50 -70
-162 -90 -274 -9 -49 -19 -98 -21 -107 -5 -16 -24 -18 -213 -18 l-207 0 -17
110 c-33 208 -77 296 -186 372 -87 61 -152 81 -246 76 -64 -3 -91 -10 -133
-33 -94 -51 -145 -147 -145 -275 0 -104 28 -173 103 -254 95 -101 213 -145
386 -146 l81 0 6 -47 c23 -181 30 -406 31 -960 1 -336 -1 -614 -4 -616 -3 -3
-110 -7 -238 -9 l-232 -3 0 45 c0 85 -32 306 -61 420 -73 289 -197 512 -422
761 -208 229 -274 325 -357 521 -59 141 -92 261 -116 420 -23 157 -15 472 15
608 41 185 128 410 213 555 117 198 350 435 561 568 187 119 488 234 700 266
101 16 568 6 655 -14z m-923 -1988 c60 -34 99 -93 124 -187 13 -46 25 -108 28
-138 l6 -55 -79 6 c-95 7 -187 37 -236 77 -43 36 -88 121 -88 167 0 51 28 110
63 132 45 29 129 28 182 -2z m1254 -2 c60 -51 65 -144 12 -228 -53 -83 -152
-132 -288 -144 l-75 -6 7 34 c10 50 56 208 71 245 19 45 63 94 99 110 16 7 56
13 87 14 46 0 62 -5 87 -25z m-522 -582 c-25 -235 -32 -447 -32 -986 l0 -587
-161 0 -160 0 -2 498 c-2 450 -10 742 -28 1030 l-7 102 198 0 198 0 -6 -57z
m749 -1757 c29 -29 34 -41 34 -79 0 -38 -6 -52 -34 -81 l-33 -36 -899 0 c-874
0 -900 1 -931 20 -79 48 -84 170 -9 200 11 5 430 9 930 9 l908 1 34 -34z
m-106 -446 l0 -90 -825 0 c-805 0 -825 0 -835 19 -11 21 -13 103 -4 139 l6 22
829 0 829 0 0 -90z m-178 -275 c13 -14 -14 -145 -43 -200 -34 -66 -146 -187
-191 -206 -15 -6 -28 -15 -28 -20 0 -5 -202 -9 -460 -9 -446 0 -461 1 -517 22
-129 48 -242 224 -243 376 l0 42 738 0 c406 0 741 -2 744 -5z m-484 -612 c-97
-2 -259 -2 -360 0 -101 1 -21 2 177 2 198 0 280 -1 183 -2z m-170 -280 c-10
-2 -26 -2 -35 0 -10 3 -2 5 17 5 19 0 27 -2 18 -5z m55 0 c-7 -2 -19 -2 -25 0
-7 3 -2 5 12 5 14 0 19 -2 13 -5z"/>
<path d="M5079 8333 c-10 -12 -15 -62 -17 -195 -4 -203 3 -228 58 -228 54 0
60 23 60 220 0 143 -3 180 -16 198 -18 26 -65 30 -85 5z"/>
<path d="M5077 7642 c-15 -16 -17 -46 -17 -205 0 -174 1 -188 20 -207 27 -27
55 -25 79 6 19 25 21 40 21 203 0 144 -3 181 -16 199 -19 27 -64 29 -87 4z"/>
<path d="M5080 6960 c-18 -18 -20 -33 -20 -198 0 -144 3 -182 16 -200 17 -25
51 -29 80 -8 17 13 19 30 22 200 3 175 2 186 -17 205 -26 26 -55 27 -81 1z"/>
<path d="M5077 5522 c-15 -16 -17 -45 -17 -195 0 -164 2 -179 20 -197 27 -27
55 -25 79 6 19 25 21 40 21 199 0 154 -2 174 -18 188 -24 22 -65 21 -85 -1z"/>
<path d="M5076 4854 c-13 -13 -16 -45 -16 -195 0 -105 4 -188 10 -200 11 -19
54 -26 77 -11 24 15 33 66 32 185 0 141 -10 215 -30 228 -22 14 -56 11 -73 -7z"/>
<path d="M5080 4170 c-19 -19 -20 -33 -20 -200 0 -167 1 -181 20 -200 28 -28
55 -25 80 8 22 26 22 33 17 200 -4 147 -7 176 -22 192 -23 25 -50 25 -75 0z"/>
<path d="M5084 3506 c-17 -13 -19 -30 -22 -201 -4 -210 2 -235 58 -235 54 0
60 23 60 225 0 147 -3 185 -16 203 -17 25 -51 29 -80 8z"/>
<path d="M5085 2805 c-25 -24 -25 -26 -25 -203 0 -174 1 -179 23 -200 29 -27
51 -28 77 -2 19 19 20 33 20 204 l0 185 -26 20 c-34 27 -40 26 -69 -4z"/>
<path d="M5077 2122 c-15 -16 -17 -45 -17 -204 0 -181 0 -185 24 -207 29 -27
68 -21 85 15 7 15 11 91 11 197 0 140 -3 177 -16 195 -19 27 -64 29 -87 4z"/>
</g>
</svg>
