<?xml version="1.0" standalone="no"?>
<!DOCTYPE svg PUBLIC "-//W3C//DTD SVG 20010904//EN"
 "http://www.w3.org/TR/2001/REC-SVG-20010904/DTD/svg10.dtd">
<svg version="1.0" xmlns="http://www.w3.org/2000/svg"
 width="1024.000000pt" height="1024.000000pt" viewBox="0 0 1024.000000 1024.000000"
 preserveAspectRatio="xMidYMid meet">

<g transform="translate(0.000000,1024.000000) scale(0.100000,-0.100000)"
fill="#000000" stroke="none">
<path d="M7315 9544 c-61 -21 -171 -110 -255 -206 -270 -304 -498 -824 -579
-1318 -25 -151 -44 -437 -36 -540 l6 -75 -61 -28 c-131 -62 -256 -190 -330
-340 -63 -130 -75 -188 -74 -367 1 -204 36 -397 120 -667 26 -86 41 -117 59
-129 37 -24 73 -11 91 34 85 212 153 320 281 445 50 48 93 87 95 87 3 0 22
-48 42 -107 46 -133 65 -153 143 -153 40 0 54 -3 51 -12 -15 -39 -50 -258 -45
-272 4 -10 21 -23 38 -29 24 -9 29 -16 23 -32 -39 -122 -47 -166 -48 -280 0
-102 4 -135 28 -220 15 -55 36 -119 46 -142 l19 -43 -342 0 c-358 -1 -392 -4
-439 -47 -11 -10 -29 -36 -39 -58 -18 -38 -19 -106 -19 -1545 l0 -1506 -32
-19 c-51 -29 -147 -125 -177 -175 l-26 -45 -5 2015 c-5 1847 -6 2018 -21 2045
-20 36 -43 57 -86 79 -28 14 -83 16 -427 16 -255 0 -405 -4 -423 -11 -35 -13
-80 -55 -101 -94 -15 -27 -16 -244 -16 -2430 l-1 -2400 -117 -3 -118 -3 -2
1828 -3 1828 -24 38 c-13 21 -42 50 -64 65 l-41 27 -383 3 c-250 2 -396 -1
-422 -8 -52 -14 -99 -54 -122 -105 -18 -38 -19 -116 -19 -1857 l0 -1818 -120
0 -120 0 -2 1374 -3 1374 -31 38 c-16 21 -48 47 -70 58 -38 20 -54 21 -434 21
-392 0 -395 0 -437 -23 -24 -12 -55 -41 -70 -64 l-28 -42 -3 -1368 -2 -1368
-525 0 -524 0 -15 -22 c-21 -29 -20 -51 2 -71 17 -16 315 -17 4088 -17 3152 0
4073 3 4082 12 16 16 16 70 0 86 -7 7 -40 12 -79 12 l-68 0 24 43 c91 163 12
408 -159 492 -52 25 -53 27 -64 86 -17 90 -52 158 -122 232 -79 85 -183 139
-315 163 -49 10 -91 18 -92 18 -1 1 -6 30 -12 64 -37 229 -240 410 -481 429
l-77 6 -5 1274 -6 1274 34 73 c42 92 80 223 96 331 14 100 1 229 -36 337 l-22
68 23 0 c25 0 63 32 63 53 0 6 -11 68 -25 136 -14 68 -25 126 -25 128 0 2 25
3 55 3 40 0 60 5 73 18 10 10 36 68 57 128 21 60 40 111 42 113 7 9 175 -164
218 -224 50 -69 127 -220 146 -284 23 -79 96 -95 125 -26 28 68 94 309 118
434 50 255 52 456 6 602 -55 176 -204 354 -360 432 l-65 32 -2 175 c-3 209
-16 351 -49 522 -109 566 -425 1173 -719 1384 -64 45 -131 75 -169 73 -11 0
-39 -7 -61 -15z m118 -126 c91 -48 211 -172 310 -322 52 -78 147 -246 147
-260 0 -3 -232 -6 -516 -6 l-516 0 42 78 c75 137 169 270 258 364 136 142 209
181 275 146z m541 -760 c98 -222 170 -480 208 -743 20 -139 17 -599 -5 -755
-35 -247 -73 -407 -169 -702 l-51 -158 -263 0 -263 0 -1 417 c0 297 -4 420
-12 430 -6 8 -25 13 -42 11 -55 -5 -56 -13 -56 -456 l0 -402 -257 2 -258 3
-52 155 c-96 285 -158 576 -184 860 -15 164 -6 503 16 643 38 240 109 486 201
695 l23 52 571 0 571 0 23 -52z m-1510 -1465 c10 -112 51 -326 92 -484 l35
-135 -129 -130 c-71 -71 -148 -158 -171 -194 -24 -36 -47 -65 -51 -65 -5 0
-12 -4 -17 -9 -5 -5 -3 -6 5 -2 15 9 15 4 0 -29 -15 -34 -23 -32 -41 13 -79
201 -111 544 -67 718 36 141 131 270 260 353 35 23 66 41 70 41 4 0 10 -35 14
-77z m1902 46 c79 -51 146 -110 140 -126 -3 -8 -2 -11 3 -8 27 16 113 -152
137 -266 30 -137 3 -419 -58 -617 -27 -90 -38 -109 -49 -91 -13 20 -11 31 4
23 7 -4 9 -3 4 2 -5 5 -12 9 -17 9 -5 0 -30 34 -57 75 -27 41 -68 97 -91 123
-23 27 -40 53 -36 58 3 5 0 8 -8 7 -7 -2 -12 3 -10 10 1 8 -2 11 -8 7 -15 -9
-145 117 -144 140 1 11 20 90 42 175 41 156 82 393 82 469 0 23 4 41 8 41 4 0
30 -14 58 -31z m-572 -1151 c10 -51 21 -99 23 -105 4 -10 -86 -13 -431 -13
-264 0 -436 4 -436 9 0 9 24 129 35 179 l5 22 393 0 393 0 18 -92z m-729 -300
c9 -100 41 -226 80 -317 40 -95 122 -232 170 -288 61 -72 89 -60 179 75 116
174 176 328 195 506 6 49 12 91 15 93 2 2 16 -12 31 -31 40 -52 66 -147 72
-257 5 -82 2 -111 -21 -200 -56 -216 -199 -474 -370 -664 l-36 -40 -36 40
c-112 123 -244 330 -306 481 -82 199 -105 359 -73 502 15 66 67 172 84 172 5
0 12 -33 16 -72z m505 26 c0 -66 -19 -188 -39 -248 -16 -49 -139 -255 -151
-255 -3 0 -35 46 -71 102 -81 125 -108 204 -116 345 l-6 103 191 -2 192 -2 0
-43z m113 -1546 c4 -314 7 -859 7 -1210 0 -622 11 -1020 30 -1065 8 -19 18
-23 49 -23 28 0 43 5 49 18 6 10 6 72 1 152 -4 74 -8 161 -8 194 l-1 59 63 -6
c123 -10 239 -75 312 -175 44 -61 65 -120 71 -207 9 -120 1 -111 104 -119 161
-12 276 -64 354 -159 47 -58 73 -117 87 -205 7 -40 17 -76 23 -80 6 -5 33 -17
60 -27 107 -39 173 -146 164 -266 -5 -66 -38 -118 -99 -154 -34 -20 -55 -20
-1444 -23 -775 -1 -1512 1 -1636 6 -224 8 -227 8 -262 34 -94 72 -106 228 -25
345 51 76 174 143 261 143 24 0 50 6 59 13 8 6 20 43 27 81 38 218 231 367
433 335 151 -24 259 -117 308 -265 22 -65 41 -81 80 -69 31 10 40 36 29 84
-25 112 -107 224 -211 288 l-60 37 7 45 c9 65 56 162 104 213 69 76 189 128
294 128 l49 0 -3 -197 -4 -197 28 -16 c24 -13 30 -13 55 0 26 15 27 19 33 125
7 112 19 1514 20 2300 l0 430 22 -29 c223 -296 249 -322 295 -297 20 11 172
201 226 283 17 26 34 48 37 48 3 0 9 -257 12 -572z m-1943 -1382 l0 -1284 -65
-30 c-88 -42 -137 -83 -190 -161 -93 -138 -96 -284 -8 -431 2 -3 -130 -4 -292
-2 l-295 3 0 1594 0 1595 425 0 425 0 0 -1284z m-1320 -711 l0 -1205 -420 0
-420 0 0 1205 0 1205 420 0 420 0 0 -1205z m-1312 -377 l-3 -823 -427 -3 -428
-2 0 825 0 825 430 0 430 0 -2 -822z"/>
<path d="M7229 8361 c-210 -67 -346 -292 -309 -510 30 -179 164 -330 334 -376
100 -27 232 -18 316 21 333 158 366 618 59 815 -107 68 -276 90 -400 50z m293
-123 c72 -33 142 -103 176 -176 22 -48 27 -71 27 -142 0 -104 -29 -174 -100
-245 -70 -71 -141 -99 -245 -100 -71 0 -94 4 -141 26 -77 36 -130 87 -169 161
-45 85 -53 193 -20 280 36 95 127 183 223 214 65 22 181 13 249 -18z"/>
<path d="M6430 7220 c0 -5 5 -10 11 -10 5 0 7 5 4 10 -3 6 -8 10 -11 10 -2 0
-4 -4 -4 -10z"/>
<path d="M6441 7160 c0 -8 4 -22 9 -30 12 -18 12 -2 0 25 -6 13 -9 15 -9 5z"/>
<path d="M6289 7143 c-13 -15 -12 -15 9 -4 23 12 28 21 13 21 -5 0 -15 -7 -22
-17z"/>
<path d="M6329 6953 c-13 -16 -12 -17 4 -4 9 7 17 15 17 17 0 8 -8 3 -21 -13z"/>
<path d="M6467 6939 c7 -7 15 -10 18 -7 3 3 -2 9 -12 12 -14 6 -15 5 -6 -5z"/>
<path d="M6261 6884 c13 -16 29 -19 29 -5 0 5 -9 11 -21 14 -16 4 -18 3 -8 -9z"/>
<path d="M6385 6829 c-4 -6 -5 -12 -2 -15 2 -3 7 2 10 11 7 17 1 20 -8 4z"/>
<path d="M6121 6814 c0 -11 3 -14 6 -6 3 7 2 16 -1 19 -3 4 -6 -2 -5 -13z"/>
<path d="M6113 6680 c0 -25 2 -35 4 -22 2 12 2 32 0 45 -2 12 -4 2 -4 -23z"/>
<path d="M6546 6641 c-4 -5 -2 -12 4 -16 6 -4 8 -10 5 -15 -3 -5 -1 -11 4 -15
6 -3 8 6 5 22 -6 33 -10 38 -18 24z"/>
<path d="M6485 6631 c-3 -5 -2 -12 3 -15 5 -3 9 1 9 9 0 17 -3 19 -12 6z"/>
<path d="M6110 6620 c0 -5 5 -10 11 -10 5 0 7 5 4 10 -3 6 -8 10 -11 10 -2 0
-4 -4 -4 -10z"/>
<path d="M6110 6571 c0 -6 4 -13 10 -16 6 -3 7 1 4 9 -7 18 -14 21 -14 7z"/>
<path d="M6359 6481 c11 -7 11 -9 0 -14 -8 -3 -9 -6 -3 -6 6 -1 16 5 22 12 8
10 6 13 -11 14 -15 2 -18 0 -8 -6z"/>
<path d="M6131 6454 c0 -11 3 -14 6 -6 3 7 2 16 -1 19 -3 4 -6 -2 -5 -13z"/>
<path d="M6395 6420 c3 -5 2 -10 -3 -10 -6 0 -13 -8 -16 -17 -6 -15 -5 -15 13
1 18 16 20 36 5 36 -3 0 -2 -4 1 -10z"/>
<path d="M6190 6191 c0 -6 4 -13 10 -16 6 -3 7 1 4 9 -7 18 -14 21 -14 7z"/>
<path d="M8344 7231 c7 -11 46 -35 46 -28 0 3 -12 12 -26 22 -15 9 -23 12 -20
6z"/>
<path d="M8400 7197 c0 -3 21 -22 47 -43 26 -21 44 -33 40 -27 -9 14 -87 77
-87 70z"/>
<path d="M8312 7170 c0 -14 2 -19 5 -12 2 6 2 18 0 25 -3 6 -5 1 -5 -13z"/>
<path d="M8350 7120 c-9 -6 -10 -10 -3 -10 6 0 15 5 18 10 8 12 4 12 -15 0z"/>
<path d="M8301 7104 c0 -11 3 -14 6 -6 3 7 2 16 -1 19 -3 4 -6 -2 -5 -13z"/>
<path d="M8281 6954 c0 -11 3 -14 6 -6 3 7 2 16 -1 19 -3 4 -6 -2 -5 -13z"/>
<path d="M8295 6930 c-3 -5 -1 -10 4 -10 6 0 11 5 11 10 0 6 -2 10 -4 10 -3 0
-8 -4 -11 -10z"/>
<path d="M8637 6695 c-4 -8 -2 -17 3 -20 6 -4 10 3 10 14 0 25 -6 27 -13 6z"/>
<path d="M8641 6644 c0 -11 3 -14 6 -6 3 7 2 16 -1 19 -3 4 -6 -2 -5 -13z"/>
<path d="M8397 6619 c7 -7 15 -10 18 -7 3 3 -2 9 -12 12 -14 6 -15 5 -6 -5z"/>
<path d="M8631 6534 c0 -11 3 -14 6 -6 3 7 2 16 -1 19 -3 4 -6 -2 -5 -13z"/>
<path d="M8566 6393 c-6 -14 -5 -15 5 -6 7 7 10 15 7 18 -3 3 -9 -2 -12 -12z"/>
<path d="M8565 6340 c3 -5 8 -10 11 -10 2 0 4 5 4 10 0 6 -5 10 -11 10 -5 0
-7 -4 -4 -10z"/>
<path d="M6996 6151 c-3 -9 -10 -43 -16 -76 -6 -33 -14 -68 -16 -77 -5 -17 20
-18 418 -18 l424 0 -20 95 -19 96 -384 -2 c-341 -2 -383 -4 -387 -18z"/>
</g>
</svg>
